<svg xmlns="http://www.w3.org/2000/svg" xmlns:xlink="http://www.w3.org/1999/xlink" aria-hidden="true" role="img" width="140" height="140" preserveAspectRatio="xMidYMid meet" viewBox="0 0 24 24"><path fill="#00d8ff" d="M14.23 12.004a2.236 2.236 0 0 1-2.235 2.236a2.236 2.236 0 0 1-2.236-2.236a2.236 2.236 0 0 1 2.236-2.235a2.236 2.236 0 0 1 2.235 2.235Z"/><path fill="#00d8ff" d="M12 17.784c.394-.676 1.01-1.754 1.806-3.096c.796-1.342 1.38-2.455 1.73-3.24c.35-.785.525-1.33.525-1.635c0-.305-.175-.85-.525-1.635c-.35-.785-.934-1.898-1.73-3.24C13.01 10.954 12.394 9.876 12 9.2c-.394.676-1.01 1.754-1.806 3.096c-.796 1.342-1.38 2.455-1.73 3.24c-.35.785-.525 1.33-.525 1.635c0 .305.175.85.525 1.635c.35.785.934 1.898 1.73 3.24C10.99 16.03 11.606 17.108 12 17.784Z"/><path fill="#00d8ff" d="M12 6.216c-.394.676-1.01 1.754-1.806 3.096c-.796 1.342-1.38 2.455-1.73 3.24c-.35.785-.525 1.33-.525 1.635c0 .305.175.85.525 1.635c.35.785.934 1.898 1.73 3.24C10.99 16.03 11.606 17.108 12 17.784c.394-.676 1.01-1.754 1.806-3.096c.796-1.342 1.38-2.455 1.73-3.24c.35-.785.525-1.33.525-1.635c0-.305-.175-.85-.525-1.635c-.35-.785-.934-1.898-1.73-3.24C13.01 7.97 12.394 6.892 12 6.216Z"/><path fill="#00d8ff" d="M8.597 4.242c-1.553-.955-2.858-.726-3.653-.272c-.796.455-1.275 1.365-1.586 2.656c-.31 1.29-.42 2.925-.42 4.774c0 1.85.11 3.484.42 4.774c.31 1.29.79 2.2 1.586 2.656c.795.454 2.1.683 3.653-.272c1.553-.954 3.132-2.653 4.577-4.866c1.445-2.213 2.558-4.61 3.24-6.564c.682-1.954.682-3.472 0-4.77c-.682-1.297-1.795-3.695-3.24-5.907C11.73 6.895 10.15 5.197 8.597 4.242Zm-.37 14.484c-.795.454-1.59.227-2.006-.15c-.416-.377-.653-.985-.853-1.82c-.2-.835-.364-1.78-.485-2.812c-.12-1.032-.197-2.127-.197-3.264c0-1.137.077-2.232.197-3.264c.121-1.032.285-1.977.485-2.812c.2-.835.437-1.443.853-1.82c.416-.378 1.21-.604 2.006-.15c1.553.955 3.132 2.653 4.577 4.866c1.445 2.213 2.558 4.61 3.24 6.564c.341.976.512 1.877.512 2.652c0 .775-.171 1.676-.512 2.652c-.682 1.954-1.795 3.695-3.24 5.907c-1.445 2.213-3.024 3.912-4.577 4.866Z"/><path fill="#00d8ff" d="M15.403 4.242c-1.445 2.213-2.558 4.61-3.24 6.564c-.341.976-.512 1.877-.512 2.652c0 .775.171 1.676.512 2.652c.682 1.954 1.795 3.695 3.24 5.907c1.445 2.213 3.024 3.912 4.577 4.866c1.553.955 2.858.726 3.653.272c.796-.455 1.275-1.365 1.586-2.656c.31-1.29.42-2.925.42-4.774c0-1.85-.11-3.484-.42-4.774c-.31-1.29-.79-2.2-1.586-2.656c-.795-.454-2.1-.683-3.653.272c-1.553.954-3.132 2.653-4.577 4.866c-1.445 2.213-2.558 4.61-3.24 6.564c-.682 1.954-.682 3.472 0 4.77c.682 1.297 1.795 3.695 3.24 5.907c1.445 2.213 3.024 3.912 4.577 4.866c.795.454 1.59.227 2.006-.15c.416-.377.653-.985.853-1.82c.2-.835.364-1.78.485-2.812c.12-1.032.197-2.127.197-3.264c0-1.137-.077-2.232-.197-3.264c-.121-1.032-.285-1.977-.485-2.812c-.2-.835-.437-1.443-.853-1.82c-.416-.378-1.21-.604-2.006-.15Z"/></svg>
